<svg width="69" height="35" viewBox="0 0 69 35" fill="none" xmlns="http://www.w3.org/2000/svg">
<path d="M42.5786 24.8336H22.3242L32.338 33.0027L42.5786 24.8336Z" stroke="white" stroke-width="2" stroke-linecap="round" stroke-linejoin="round"/>
<path d="M4.6875 13.2175H2.87109V6.16284H0.544922V4.65112H7.01367V6.16284H4.6875V13.2175ZM15.3516 13.2175H13.541V9.52026H10.1484V13.2175H8.33203V4.65112H10.1484V8.00854H13.541V4.65112H15.3516V13.2175ZM22.4531 13.2175H17.5195V4.65112H22.4531V6.1394H19.3359V8.02026H22.2363V9.50854H19.3359V11.7175H22.4531V13.2175ZM32.4199 10.8386C32.4199 11.6121 32.1406 12.2214 31.582 12.6667C31.0273 13.1121 30.2539 13.3347 29.2617 13.3347C28.3477 13.3347 27.5391 13.1628 26.8359 12.8191V11.1316C27.4141 11.3894 27.9023 11.571 28.3008 11.6765C28.7031 11.782 29.0703 11.8347 29.4023 11.8347C29.8008 11.8347 30.1055 11.7585 30.3164 11.6062C30.5312 11.4539 30.6387 11.2273 30.6387 10.9265C30.6387 10.7585 30.5918 10.6101 30.498 10.4812C30.4043 10.3484 30.2656 10.2214 30.082 10.1003C29.9023 9.97925 29.5332 9.78589 28.9746 9.52026C28.4512 9.27417 28.0586 9.03784 27.7969 8.81128C27.5352 8.58472 27.3262 8.32104 27.1699 8.02026C27.0137 7.71948 26.9355 7.36792 26.9355 6.96558C26.9355 6.20776 27.1914 5.61206 27.7031 5.17847C28.2188 4.74487 28.9297 4.52808 29.8359 4.52808C30.2812 4.52808 30.7051 4.58081 31.1074 4.68628C31.5137 4.79175 31.9375 4.94019 32.3789 5.13159L31.793 6.5437C31.3359 6.3562 30.957 6.22534 30.6562 6.15112C30.3594 6.0769 30.0664 6.03979 29.7773 6.03979C29.4336 6.03979 29.1699 6.11987 28.9863 6.28003C28.8027 6.44019 28.7109 6.64917 28.7109 6.90698C28.7109 7.06714 28.748 7.20776 28.8223 7.32886C28.8965 7.44604 29.0137 7.56128 29.1738 7.67456C29.3379 7.78394 29.7227 7.98315 30.3281 8.27222C31.1289 8.65503 31.6777 9.03979 31.9746 9.42651C32.2715 9.80933 32.4199 10.28 32.4199 10.8386ZM37.2773 13.2175H35.4609V6.16284H33.1348V4.65112H39.6035V6.16284H37.2773V13.2175ZM48.6973 8.92261C48.6973 10.3406 48.3457 11.4304 47.6426 12.1921C46.9395 12.9539 45.9316 13.3347 44.6191 13.3347C43.3066 13.3347 42.2988 12.9539 41.5957 12.1921C40.8926 11.4304 40.541 10.3367 40.541 8.91089C40.541 7.48511 40.8926 6.39722 41.5957 5.64722C42.3027 4.89331 43.3145 4.51636 44.6309 4.51636C45.9473 4.51636 46.9531 4.89526 47.6484 5.65308C48.3477 6.41089 48.6973 7.50073 48.6973 8.92261ZM42.4453 8.92261C42.4453 9.87964 42.627 10.6003 42.9902 11.0847C43.3535 11.5691 43.8965 11.8113 44.6191 11.8113C46.0684 11.8113 46.793 10.8484 46.793 8.92261C46.793 6.99292 46.0723 6.02808 44.6309 6.02808C43.9082 6.02808 43.3633 6.27222 42.9961 6.7605C42.6289 7.24487 42.4453 7.96558 42.4453 8.92261ZM52.2891 8.45386H52.875C53.4492 8.45386 53.873 8.35815 54.1465 8.16675C54.4199 7.97534 54.5566 7.67456 54.5566 7.2644C54.5566 6.85815 54.416 6.56909 54.1348 6.39722C53.8574 6.22534 53.4258 6.1394 52.8398 6.1394H52.2891V8.45386ZM52.2891 9.93042V13.2175H50.4727V4.65112H52.9688C54.1328 4.65112 54.9941 4.86401 55.5527 5.28979C56.1113 5.71167 56.3906 6.35425 56.3906 7.21753C56.3906 7.72144 56.252 8.17065 55.9746 8.56519C55.6973 8.95581 55.3047 9.26245 54.7969 9.48511C56.0859 11.4109 56.9258 12.655 57.3164 13.2175H55.3008L53.2559 9.93042H52.2891ZM61.0605 8.17847L62.8477 4.65112H64.8047L61.9629 9.88354V13.2175H60.1582V9.94214L57.3164 4.65112H59.2852L61.0605 8.17847Z" fill="white"/>
</svg>
